RBDS04runT25_grf
version=1
nRows=34
nColumns=19
inDegrees=no
endheader
time	ground_force_r_vx	ground_force_r_vy	ground_force_r_vz	ground_force_r_px	ground_force_r_py	ground_force_r_pz	ground_force_r_mx	ground_force_r_my	ground_force_r_mz	ground_force_l_vx	ground_force_l_vy	ground_force_l_vz	ground_force_l_px	ground_force_l_py	ground_force_l_pz	ground_force_l_mx	ground_force_l_my	ground_force_l_mz
      0.00000000	    -27.88702433	    764.73334291	    -10.78357728	      2.09959349	      0.00000000	      1.02272024	     -0.00000000	     21.27725285	      0.00000000	      0.00000000	      0.00000000	      0.00000000	      0.00000000	      0.00000000	      0.00000000	      0.00000000	      0.00000000	      0.00000000
      0.00100000	    -32.51974528	    777.40995207	     -9.33235456	      2.09911375	      0.00000000	      1.02280006	      0.00000000	     20.61245140	      0.00000000	      0.00000000	      0.00000000	      0.00000000	      0.00000000	      0.00000000	      0.00000000	      0.00000000	      0.00000000	      0.00000000
      0.00200000	    -37.15246622	    790.08656124	     -7.88113183	      2.09863401	      0.00000000	      1.02287989	      0.00000000	     19.94764995	      0.00000000	      0.00000000	      0.00000000	      0.00000000	      0.00000000	      0.00000000	      0.00000000	      0.00000000	      0.00000000	      0.00000000
      0.00300000	    -41.78518717	    802.76317040	     -6.42990911	      2.09815427	      0.00000000	      1.02295971	      0.00000000	     19.28284850	     -0.00000000	      0.00000000	      0.00000000	      0.00000000	      0.00000000	      0.00000000	      0.00000000	      0.00000000	      0.00000000	      0.00000000
      0.00400000	    -46.34920985	    815.46239853	     -5.01569511	      2.09766208	      0.00000000	      1.02303949	      0.00000000	     18.62688321	     -0.00000000	      0.00000000	      0.00000000	      0.00000000	      0.00000000	      0.00000000	      0.00000000	      0.00000000	      0.00000000	      0.00000000
      0.00500000	    -50.87888341	    828.17293615	     -3.61998549	      2.09716365	      0.00000000	      1.02311925	      0.00000000	     17.97533600	     -0.00000000	      0.00000000	      0.00000000	      0.00000000	      0.00000000	      0.00000000	      0.00000000	      0.00000000	      0.00000000	      0.00000000
      0.00600000	    -55.40855697	    840.88347377	     -2.22427586	      2.09666523	      0.00000000	      1.02319901	      0.00000000	     17.32378879	     -0.00000000	      0.00000000	      0.00000000	      0.00000000	      0.00000000	      0.00000000	      0.00000000	      0.00000000	      0.00000000	      0.00000000
      0.00700000	    -59.87657885	    853.58499562	     -0.86651104	      2.09615552	      0.00000000	      1.02327900	      0.00000000	     16.67989957	     -0.00000000	      0.00000000	      0.00000000	      0.00000000	      0.00000000	      0.00000000	      0.00000000	      0.00000000	      0.00000000	      0.00000000
      0.00800000	    -64.22129739	    866.26848593	      0.41536415	      2.09562324	      0.00000000	      1.02335944	      0.00000000	     16.05132631	     -0.00000000	      0.00000000	      0.00000000	      0.00000000	      0.00000000	      0.00000000	      0.00000000	      0.00000000	      0.00000000	      0.00000000
      0.00900000	    -68.56601593	    878.95197623	      1.69723935	      2.09509096	      0.00000000	      1.02343989	      0.00000000	     15.42275305	     -0.00000000	      0.00000000	      0.00000000	      0.00000000	      0.00000000	      0.00000000	      0.00000000	      0.00000000	      0.00000000	      0.00000000
      0.01000000	    -72.91073448	    891.63546654	      2.97911454	      2.09455868	      0.00000000	      1.02352033	      0.00000000	     14.79417979	     -0.00000000	      0.00000000	      0.00000000	      0.00000000	      0.00000000	      0.00000000	      0.00000000	      0.00000000	      0.00000000	      0.00000000
      0.01100000	    -76.99184392	    904.23018987	      4.09475892	      2.09397737	      0.00000000	      1.02360223	      0.00000000	     14.19765420	     -0.00000000	      0.00000000	      0.00000000	      0.00000000	      0.00000000	      0.00000000	      0.00000000	      0.00000000	      0.00000000	      0.00000000
      0.01200000	    -81.07295336	    916.82491319	      5.21040330	      2.09339607	      0.00000000	      1.02368412	      0.00000000	     13.60112861	     -0.00000000	      0.00000000	      0.00000000	      0.00000000	      0.00000000	      0.00000000	      0.00000000	      0.00000000	      0.00000000	      0.00000000
      0.01300000	    -85.15406280	    929.41963652	      6.32604768	      2.09281476	      0.00000000	      1.02376602	      0.00000000	     13.00460303	     -0.00000000	      0.00000000	      0.00000000	      0.00000000	      0.00000000	      0.00000000	      0.00000000	      0.00000000	      0.00000000	      0.00000000
      0.01400000	    -89.01072921	    941.91323688	      7.30161930	      2.09219109	      0.00000000	      1.02384937	      0.00000000	     12.43485686	     -0.00000000	      0.00000000	      0.00000000	      0.00000000	      0.00000000	      0.00000000	      0.00000000	      0.00000000	      0.00000000	      0.00000000
      0.01500000	    -92.75517410	    954.35627576	      8.20715453	      2.09154623	      0.00000000	      1.02393346	      0.00000000	     11.87850039	     -0.00000000	      0.00000000	      0.00000000	      0.00000000	      0.00000000	      0.00000000	      0.00000000	      0.00000000	      0.00000000	      0.00000000
      0.01600000	    -96.49961899	    966.79931463	      9.11268977	      2.09090136	      0.00000000	      1.02401754	      0.00000000	     11.32214393	     -0.00000000	      0.00000000	      0.00000000	      0.00000000	      0.00000000	      0.00000000	      0.00000000	      0.00000000	      0.00000000	      0.00000000
      0.01700000	   -100.11008702	    979.17027387	      9.93704376	      2.09023088	      0.00000000	      1.02410258	      0.00000000	     10.78148245	     -0.00000000	      0.00000000	      0.00000000	      0.00000000	      0.00000000	      0.00000000	      0.00000000	      0.00000000	      0.00000000	      0.00000000
      0.01800000	   -103.45260132	    991.39707383	     10.59903529	      2.08950917	      0.00000000	      1.02418953	      0.00000000	     10.27221095	     -0.00000000	      0.00000000	      0.00000000	      0.00000000	      0.00000000	      0.00000000	      0.00000000	      0.00000000	      0.00000000	      0.00000000
      0.01900000	   -106.79511562	   1003.62387378	     11.26102682	      2.08878745	      0.00000000	      1.02427647	      0.00000000	      9.76293944	     -0.00000000	      0.00000000	      0.00000000	      0.00000000	      0.00000000	      0.00000000	      0.00000000	      0.00000000	      0.00000000	      0.00000000
      0.02000000	   -110.13762993	   1015.85067374	     11.92301835	      2.08806573	      0.00000000	      1.02436342	      0.00000000	      9.25366794	     -0.00000000	      0.00000000	      0.00000000	      0.00000000	      0.00000000	      0.00000000	      0.00000000	      0.00000000	      0.00000000	      0.00000000
      0.02100000	   -113.02266163	   1027.79469765	     12.31963713	      2.08725559	      0.00000000	      1.02445381	      0.00000000	      8.79700057	     -0.00000000	      0.00000000	      0.00000000	      0.00000000	      0.00000000	      0.00000000	      0.00000000	      0.00000000	      0.00000000	      0.00000000
      0.02200000	   -115.90769334	   1039.73872155	     12.71625592	      2.08644545	      0.00000000	      1.02454421	      0.00000000	      8.34033320	     -0.00000000	      0.00000000	      0.00000000	      0.00000000	      0.00000000	      0.00000000	      0.00000000	      0.00000000	      0.00000000	      0.00000000
      0.02300000	   -118.79272505	   1051.68274545	     13.11287470	      2.08563530	      0.00000000	      1.02463460	      0.00000000	      7.88366584	     -0.00000000	      0.00000000	      0.00000000	      0.00000000	      0.00000000	      0.00000000	      0.00000000	      0.00000000	      0.00000000	      0.00000000
      0.02400000	   -121.34324172	   1063.39245353	     13.32601719	      2.08475995	      0.00000000	      1.02472761	      0.00000000	      7.46473257	     -0.00000000	      0.00000000	      0.00000000	      0.00000000	      0.00000000	      0.00000000	      0.00000000	      0.00000000	      0.00000000	      0.00000000
      0.02500000	   -123.72650087	   1074.98500368	     13.44742152	      2.08385198	      0.00000000	      1.02482192	      0.00000000	      7.06466635	     -0.00000000	      0.00000000	      0.00000000	      0.00000000	      0.00000000	      0.00000000	      0.00000000	      0.00000000	      0.00000000	      0.00000000
      0.02600000	   -126.10976002	   1086.57755384	     13.56882586	      2.08294401	      0.00000000	      1.02491624	      0.00000000	      6.66460013	     -0.00000000	      0.00000000	      0.00000000	      0.00000000	      0.00000000	      0.00000000	      0.00000000	      0.00000000	      0.00000000	      0.00000000
      0.02700000	   -128.31511367	   1098.02934445	     13.59909417	      2.08200112	      0.00000000	      1.02501197	      0.00000000	      6.28420568	     -0.00000000	      0.00000000	      0.00000000	      0.00000000	      0.00000000	      0.00000000	      0.00000000	      0.00000000	      0.00000000	      0.00000000
      0.02800000	   -130.16465630	   1109.19961595	     13.44709042	      2.08098838	      0.00000000	      1.02511053	      0.00000000	      5.94315473	     -0.00000000	      0.00000000	      0.00000000	      0.00000000	      0.00000000	      0.00000000	      0.00000000	      0.00000000	      0.00000000	      0.00000000
      0.02900000	   -132.01419893	   1120.36988746	     13.29508667	      2.07997565	      0.00000000	      1.02520910	      0.00000000	      5.60210379	     -0.00000000	      0.00000000	      0.00000000	      0.00000000	      0.00000000	      0.00000000	      0.00000000	      0.00000000	      0.00000000	      0.00000000
      0.03000000	   -133.86374156	   1131.54015897	     13.14308292	      2.07896291	      0.00000000	      1.02530766	      0.00000000	      5.26105285	     -0.00000000	      0.00000000	      0.00000000	      0.00000000	      0.00000000	      0.00000000	      0.00000000	      0.00000000	      0.00000000	      0.00000000
      0.03100000	   -135.16054067	   1142.21557361	     12.73018048	      2.07784112	      0.00000000	      1.02541067	      0.00000000	      4.97984944	     -0.00000000	      0.00000000	      0.00000000	      0.00000000	      0.00000000	      0.00000000	      0.00000000	      0.00000000	      0.00000000	      0.00000000
      0.03200000	   -136.45733978	   1152.89098826	     12.31727804	      2.07671933	      0.00000000	      1.02551367	      0.00000000	      4.69864603	     -0.00000000	      0.00000000	      0.00000000	      0.00000000	      0.00000000	      0.00000000	      0.00000000	      0.00000000	      0.00000000	      0.00000000
      0.03300000	   -137.75413889	   1163.56640290	     11.90437559	      2.07559754	      0.00000000	      1.02561668	      0.00000000	      4.41744261	     -0.00000000	      0.00000000	      0.00000000	      0.00000000	      0.00000000	      0.00000000	      0.00000000	      0.00000000	      0.00000000	      0.00000000
